<svg width="23" height="42" viewBox="0 0 23 42" fill="none" xmlns="http://www.w3.org/2000/svg">
<path d="M22.1209 -2.86102e-06H24.1209V-2H22.1209V-2.86102e-06ZM22.1209 42V44H24.1209V42H22.1209ZM7.96094 42H5.96094V44H7.96094V42ZM7.96094 10.68H9.96094V8.68H7.96094V10.68ZM0.760938 10.68H-1.23906V12.68H0.760938V10.68ZM0.760938 -2.86102e-06V-2H-1.23906V-2.86102e-06H0.760938ZM20.1209 -2.86102e-06V42H24.1209V-2.86102e-06H20.1209ZM22.1209 40H7.96094V44H22.1209V40ZM9.96094 42V10.68H5.96094V42H9.96094ZM7.96094 8.68H0.760938V12.68H7.96094V8.68ZM2.76094 10.68V-2.86102e-06H-1.23906V10.68H2.76094ZM0.760938 2H22.1209V-2H0.760938V2Z" fill="#4E7FCE"/>
</svg>
