<svg width="270" height="155" viewBox="0 0 270 155" fill="none" xmlns="http://www.w3.org/2000/svg">
<g clip-path="url(#clip0_247_1180)">
<path d="M270 0.350098L65.2612 92.6833L0 52.5384L270 0.350098Z" fill="url(#paint0_linear_247_1180)"/>
<path d="M97.1712 112.241L117.038 124.491L79.7751 154.651L97.1712 112.241Z" fill="#4E7FCE"/>
<path d="M270 0.350098L97.1711 112.241L162.432 152.386L270 0.350098Z" fill="url(#paint1_linear_247_1180)"/>
<path d="M97.1712 112.241L270 0.350098L65.2612 92.6833L79.7751 154.651L97.1712 112.241Z" fill="url(#paint2_linear_247_1180)"/>
<path d="M62.379 90.8305L270 0.350098L65.2612 92.6833L62.379 90.8305Z" fill="#B8C9EA"/>
<path d="M97.1711 112.241L270 0.350098L99.7445 113.888L97.1711 112.241Z" fill="#B8C9EA"/>
</g>
<defs>
<linearGradient id="paint0_linear_247_1180" x1="159.139" y1="60.9481" x2="99.678" y2="-99.3644" gradientUnits="userSpaceOnUse">
<stop stop-color="#93AEDA"/>
<stop offset="0.444" stop-color="#7398D4"/>
<stop offset="1" stop-color="#4E7FCE"/>
</linearGradient>
<linearGradient id="paint1_linear_247_1180" x1="238.85" y1="91.7446" x2="192.403" y2="4.10265" gradientUnits="userSpaceOnUse">
<stop stop-color="#93AEDA"/>
<stop offset="0.444" stop-color="#7398D4"/>
<stop offset="1" stop-color="#4E7FCE"/>
</linearGradient>
<linearGradient id="paint2_linear_247_1180" x1="222.745" y1="148.598" x2="191.944" y2="1.09068" gradientUnits="userSpaceOnUse">
<stop stop-color="#93AEDA"/>
<stop offset="0.2889" stop-color="#7B9ED6"/>
<stop offset="0.7478" stop-color="#5A87D0"/>
<stop offset="1" stop-color="#4E7FCE"/>
</linearGradient>
<clipPath id="clip0_247_1180">
<rect width="270" height="155" fill="white"/>
</clipPath>
</defs>
</svg>
