<svg width="7" height="7" viewBox="0 0 7 7" fill="none" xmlns="http://www.w3.org/2000/svg">
<path d="M2.03934 4.43952C2.02418 4.42436 2.0166 4.40163 2.0166 4.37889C2.0166 4.34858 2.02418 4.32584 2.03934 4.31069L3.63082 2.72679C3.64597 2.70405 3.66113 2.69647 3.69144 2.69647C3.71418 2.69647 3.73691 2.70405 3.75207 2.72679L5.34355 4.31069C5.35871 4.32584 5.36629 4.34858 5.36629 4.37889C5.36629 4.40163 5.35871 4.42436 5.34355 4.43952L5.19198 4.59109C5.17682 4.60625 5.15409 4.6214 5.13135 4.6214C5.10104 4.6214 5.0783 4.60625 5.06315 4.59109L3.69144 3.21939L2.31974 4.59109C2.29701 4.60625 2.27427 4.6214 2.25153 4.6214C2.22122 4.6214 2.20606 4.60625 2.19091 4.59109L2.03934 4.43952Z" fill="#282828"/>
</svg>
