<svg width="10" height="10" viewBox="0 0 10 10" fill="none" xmlns="http://www.w3.org/2000/svg">
<g clip-path="url(#clip0_187_6484)">
<path d="M9.87849 4.77778C9.94793 4.91667 10 5.05556 10 5.19444C10 5.35069 9.94793 5.48958 9.87849 5.61111C9.37502 6.46181 8.69793 7.13889 7.84724 7.625C6.97918 8.14583 6.02432 8.38889 5.00002 8.38889C3.95835 8.38889 3.02085 8.14583 2.15279 7.625C1.28474 7.13889 0.607654 6.46181 0.121543 5.61111C0.0347375 5.48958 1.52588e-05 5.35069 1.52588e-05 5.19444C1.52588e-05 5.05556 0.0347375 4.91667 0.121543 4.77778C0.607654 3.94444 1.28474 3.26736 2.15279 2.76389C3.02085 2.26042 3.95835 2 5.00002 2C6.02432 2 6.97918 2.26042 7.84724 2.76389C8.69793 3.26736 9.37502 3.94444 9.87849 4.77778ZM5.00002 7.55556C5.86807 7.55556 6.68404 7.34722 7.41321 6.91319C8.14238 6.49653 8.73265 5.92361 9.16668 5.19444C8.8889 4.76042 8.55904 4.37847 8.1771 4.03125C7.79515 3.68403 7.36113 3.40625 6.87502 3.19792C7.18752 3.63194 7.36113 4.11806 7.36113 4.63889C7.36113 5.07292 7.2396 5.47222 7.03127 5.81944C6.82293 6.18403 6.52779 6.47917 6.18057 6.6875C5.81599 6.89583 5.41668 7 5.00002 7C4.56599 7 4.16668 6.89583 3.81946 6.6875C3.45488 6.47917 3.15974 6.18403 2.9514 5.81944C2.74307 5.47222 2.6389 5.07292 2.6389 4.63889C2.6389 4.25694 2.72571 3.875 2.91668 3.52778C2.91668 3.80556 3.00349 4.03125 3.19446 4.22222C3.38543 4.41319 3.61113 4.5 3.8889 4.5C4.14932 4.5 4.37502 4.41319 4.56599 4.22222C4.75696 4.03125 4.86113 3.80556 4.86113 3.52778C4.86113 3.26736 4.75696 3.04167 4.58335 2.85069C3.78474 2.92014 3.07293 3.16319 2.41321 3.57986C1.75349 3.99653 1.21529 4.53472 0.833349 5.19444C1.25002 5.92361 1.84029 6.49653 2.56946 6.91319C3.29863 7.34722 4.1146 7.55556 5.00002 7.55556Z" fill="white"/>
</g>
<defs>
<clipPath id="clip0_187_6484">
<rect width="10" height="10" fill="white"/>
</clipPath>
</defs>
</svg>
