<svg width="36" height="36" viewBox="0 0 36 36" fill="none" xmlns="http://www.w3.org/2000/svg">
<circle cx="18" cy="18" r="17.5" stroke="#F0F2F5"/>
<path d="M18.0167 14.1328C15.8739 14.1328 14.1663 15.8739 14.1663 17.9833C14.1663 20.1261 15.8739 21.8337 18.0167 21.8337C20.1261 21.8337 21.8672 20.1261 21.8672 17.9833C21.8672 15.8739 20.1261 14.1328 18.0167 14.1328ZM18.0167 20.4944C16.644 20.4944 15.5056 19.3895 15.5056 17.9833C15.5056 16.6105 16.6105 15.5056 18.0167 15.5056C19.3895 15.5056 20.4944 16.6105 20.4944 17.9833C20.4944 19.3895 19.3895 20.4944 18.0167 20.4944ZM22.9051 13.9989C22.9051 13.4967 22.5033 13.0949 22.0011 13.0949C21.4989 13.0949 21.0971 13.4967 21.0971 13.9989C21.0971 14.5011 21.4989 14.9029 22.0011 14.9029C22.5033 14.9029 22.9051 14.5011 22.9051 13.9989ZM25.4498 14.9029C25.3828 13.6975 25.115 12.6261 24.2444 11.7556C23.3739 10.885 22.3025 10.6172 21.0971 10.5502C19.8583 10.4833 16.1417 10.4833 14.9029 10.5502C13.6975 10.6172 12.6596 10.885 11.7556 11.7556C10.885 12.6261 10.6172 13.6975 10.5502 14.9029C10.4833 16.1417 10.4833 19.8583 10.5502 21.0971C10.6172 22.3025 10.885 23.3404 11.7556 24.2444C12.6596 25.115 13.6975 25.3828 14.9029 25.4498C16.1417 25.5167 19.8583 25.5167 21.0971 25.4498C22.3025 25.3828 23.3739 25.115 24.2444 24.2444C25.115 23.3404 25.3828 22.3025 25.4498 21.0971C25.5167 19.8583 25.5167 16.1417 25.4498 14.9029ZM23.8426 22.4029C23.6083 23.0725 23.0725 23.5748 22.4364 23.8426C21.4319 24.2444 19.0882 24.144 18.0167 24.144C16.9118 24.144 14.5681 24.2444 13.5971 23.8426C12.9275 23.5748 12.4252 23.0725 12.1574 22.4029C11.7556 21.4319 11.856 19.0882 11.856 17.9833C11.856 16.9118 11.7556 14.5681 12.1574 13.5636C12.4252 12.9275 12.9275 12.4252 13.5971 12.1574C14.5681 11.7556 16.9118 11.856 18.0167 11.856C19.0882 11.856 21.4319 11.7556 22.4364 12.1574C23.0725 12.3917 23.5748 12.9275 23.8426 13.5636C24.2444 14.5681 24.144 16.9118 24.144 17.9833C24.144 19.0882 24.2444 21.4319 23.8426 22.4029Z" fill="#9BA0B9"/>
</svg>
