<svg width="81" height="38" viewBox="0 0 81 38" fill="none" xmlns="http://www.w3.org/2000/svg">
<path fill-rule="evenodd" clip-rule="evenodd" d="M13.2321 24.4851H10.9077L16.3212 14.6002L21.6285 24.4851H19.3498L16.3212 18.8443L13.2321 24.4851Z" fill="#4E7FCE"/>
<path d="M22.5217 14.8658H26.7138C27.9417 14.8658 28.8945 15.1568 29.5726 15.7385C30.2506 16.3203 30.5899 17.147 30.5899 18.2189C30.5899 19.3457 30.2506 20.2205 29.5726 20.8435C28.8945 21.4665 27.9417 21.778 26.7138 21.778H24.9682V24.4851H22.5217V14.8658ZM24.9682 16.7897V19.8542H26.5902C27.1305 19.8542 27.5478 19.7213 27.8408 19.4556C28.134 19.19 28.2807 18.8052 28.2807 18.3013C28.2807 17.8066 28.134 17.431 27.8408 17.1745C27.5478 16.918 27.1305 16.7897 26.5902 16.7897H24.9682Z" fill="#4E7FCE"/>
<path d="M31.8681 14.8658H36.0601C37.288 14.8658 38.2408 15.1568 38.9189 15.7385C39.597 16.3203 39.936 17.147 39.936 18.2189C39.936 19.3457 39.597 20.2205 38.9189 20.8435C38.2408 21.4665 37.288 21.778 36.0601 21.778H34.3146V24.4851H31.8681V14.8658ZM34.3146 16.7897V19.8542H35.9366C36.4769 19.8542 36.8939 19.7213 37.1871 19.4556C37.4803 19.19 37.627 18.8052 37.627 18.3013C37.627 17.8066 37.4803 17.431 37.1871 17.1745C36.8939 16.918 36.4769 16.7897 35.9366 16.7897H34.3146Z" fill="#4E7FCE"/>
<path d="M54.4641 24.4851H52.3061L47.8804 18.5624V24.4851H45.5851V14.8658H47.7429L52.1825 20.8022V14.8658H54.4641V24.4851Z" fill="#4E7FCE"/>
<path d="M58.8347 24.4851H56.3882V14.8658H58.8347V24.4851Z" fill="#4E7FCE"/>
<path d="M65.3222 14.7834C66.8156 14.7834 68.0572 15.2484 69.0469 16.1782C70.0366 17.1081 70.5313 18.2692 70.5313 19.6618C70.5313 21.0634 70.0342 22.236 69.0401 23.1797C68.0459 24.1232 66.8067 24.5951 65.3222 24.5951C63.8375 24.5951 62.6007 24.1256 61.611 23.1865C60.6215 22.2476 60.1266 21.0725 60.1266 19.6618C60.1266 18.2601 60.6215 17.0967 61.611 16.1713C62.6007 15.246 63.8375 14.7834 65.3222 14.7834ZM65.3496 16.831C64.5983 16.831 63.9569 17.1035 63.4255 17.6485C62.8939 18.1937 62.6281 18.8693 62.6281 19.6755C62.6281 20.4817 62.8963 21.1619 63.4324 21.7162C63.9685 22.2704 64.6075 22.5476 65.3496 22.5476C66.0917 22.5476 66.7219 22.2704 67.2395 21.7162C67.7571 21.1619 68.0161 20.4817 68.0161 19.6755C68.0161 18.8693 67.7571 18.1937 67.2395 17.6485C66.7219 17.1035 66.0917 16.831 65.3496 16.831Z" fill="#4E7FCE"/>
<path d="M80.7022 24.4851H78.5444L74.1185 18.5624V24.4851H71.8232V14.8658H73.9813L78.4206 20.8022V14.8658H80.7022V24.4851Z" fill="#4E7FCE"/>
<path fill-rule="evenodd" clip-rule="evenodd" d="M6.71146 26.3776C3.6794 20.8988 3.27962 14.2051 6.48085 8.66135C7.67277 6.59752 9.28156 4.83026 11.2168 3.43988C17.7034 -1.22032 26.475 -0.920075 33.2375 2.98345C36.1116 4.64247 38.6029 6.94149 40.4574 9.64612H37.7088C36.2214 7.80616 34.3484 6.17954 32.1311 4.89979C23.4646 -0.102813 12.8387 2.0769 8.39742 9.7678C5.42095 14.9222 5.97795 21.2438 9.27776 26.359L4.58795 34.4802L14.5639 31.8075C15.0398 32.1394 15.5341 32.455 16.0476 32.7514C24.714 37.754 35.3397 35.5745 39.7812 27.8834C42.0854 23.8929 42.2717 19.2029 40.7072 14.9148H43.0551C43.8038 17.2521 44.1062 19.7396 43.8528 22.2784C43.616 24.649 42.8894 26.9259 41.6974 28.9896C40.5056 31.0538 38.8963 32.8216 36.9606 34.2121C30.4741 38.8715 21.703 38.5707 14.941 34.6674C14.6818 34.5179 14.4255 34.363 14.1724 34.203L0 38L6.71146 26.3776ZM49.5303 11.1065C49.9634 11.8645 50.3472 12.6489 50.6783 13.4545H48.2566C47.8788 12.6497 47.4371 11.8645 46.9352 11.1065H49.5303ZM41.3739 11.1065C41.807 11.8645 42.1911 12.6489 42.5219 13.4545H40.1002C39.7227 12.6497 39.2807 11.8645 38.7788 11.1065H41.3739ZM57.6867 11.1065C58.1198 11.8645 58.5036 12.6489 58.8347 13.4545H56.413C56.0352 12.6497 55.5935 11.8645 55.0916 11.1065H57.6867Z" fill="#FE950D"/>
<path fill-rule="evenodd" clip-rule="evenodd" d="M14.4886 24.4851L16.2858 21.2034L18.0477 24.4851H14.4886Z" fill="#FE950D"/>
</svg>
