<svg width="48" height="48" viewBox="0 0 48 48" fill="none" xmlns="http://www.w3.org/2000/svg">
<circle cx="24" cy="24" r="23.5" stroke="#F0F2F5"/>
<g clip-path="url(#clip0_322_1884)">
<path d="M32.8415 18.5759L27.3825 23.9998L32.8415 29.4237C32.9402 29.2174 33.0001 28.9894 33.0001 28.7459V19.2537C33.0001 19.0102 32.9402 18.7822 32.8415 18.5759Z" fill="#4E7FCE"/>
<path d="M31.418 17.6719H16.582C16.3385 17.6719 16.1105 17.7317 15.9043 17.8304L22.8815 24.7725C23.4984 25.3894 24.5016 25.3894 25.1185 24.7725L32.0957 17.8304C31.8895 17.7317 31.6615 17.6719 31.418 17.6719Z" fill="#4E7FCE"/>
<path d="M15.1586 18.5759C15.0599 18.7822 15 19.0102 15 19.2537V28.7459C15 28.9894 15.0599 29.2175 15.1586 29.4237L20.6176 23.9998L15.1586 18.5759Z" fill="#4E7FCE"/>
<path d="M26.6367 24.7458L25.8642 25.5183C24.8363 26.5462 23.1637 26.5462 22.1357 25.5183L21.3633 24.7458L15.9043 30.1697C16.1105 30.2683 16.3385 30.3282 16.582 30.3282H31.418C31.6615 30.3282 31.8895 30.2683 32.0957 30.1697L26.6367 24.7458Z" fill="#4E7FCE"/>
</g>
<defs>
<clipPath id="clip0_322_1884">
<rect width="18" height="18" fill="white" transform="translate(15 15)"/>
</clipPath>
</defs>
</svg>
