<svg width="21" height="12" viewBox="0 0 21 12" fill="none" xmlns="http://www.w3.org/2000/svg">
<path d="M19.0824 1.65167C18.142 0.586583 16.8158 -4.63615e-07 15.3481 0C13.5382 -1.68587e-07 12.1758 1.04259 11.2211 2.19921C11.5839 2.75629 11.8665 3.28956 12.0726 3.72226C12.8059 2.66596 13.9041 1.59876 15.3481 1.59876C17.3861 1.59876 18.8653 3.24607 18.8653 5.51571C18.8653 7.78534 17.3861 9.43266 15.3481 9.43266C12.4345 9.43266 11.0038 5.30251 10.9901 5.26194L10.9861 5.25047C10.9107 5.03608 9.0938 0 5.11602 0C3.64828 -4.63615e-07 2.32211 0.586583 1.38169 1.65167C0.490699 2.66081 5.90056e-07 4.0331 0 5.51571C0 6.99831 0.4907 8.3706 1.38169 9.37974C2.32211 10.4448 3.64828 11.0314 5.11602 11.0314C6.94076 11.0314 8.29618 10.015 9.24257 8.87505C8.88069 8.31809 8.60047 7.78418 8.39479 7.34448C7.67119 8.38823 6.58116 9.43266 5.11602 9.43266C3.07797 9.43266 1.59876 7.78534 1.59876 5.51571C1.59876 3.24607 3.07797 1.59876 5.11602 1.59876C7.92795 1.59876 9.42898 5.6462 9.47686 5.77794C9.58306 6.09098 11.3253 11.0314 15.3481 11.0314C16.8158 11.0314 18.142 10.4448 19.0824 9.37974C19.9734 8.3706 20.4641 6.99831 20.4641 5.51571C20.4641 4.0331 19.9734 2.66081 19.0824 1.65167Z" fill="#333333"/>
</svg>
