<svg width="36" height="36" viewBox="0 0 36 36" fill="none" xmlns="http://www.w3.org/2000/svg">
<circle cx="18" cy="18" r="17.5" stroke="#FE950D"/>
<path d="M26.0687 13.6875C26.1625 13.3125 26.0687 13 25.5062 13H23.6625C23.1937 13 22.975 13.25 22.85 13.5312C22.85 13.5312 21.9125 15.8125 20.6 17.3125C20.1625 17.7188 19.975 17.875 19.725 17.875C19.6312 17.875 19.4437 17.7188 19.4437 17.3438V13.6875C19.4437 13.2188 19.3187 13 18.9125 13H16.0375C15.725 13 15.5687 13.2188 15.5687 13.4375C15.5687 13.875 16.225 13.9688 16.2875 15.2188V17.9375C16.2875 18.5312 16.1937 18.6562 15.9437 18.6562C15.3187 18.6562 13.8187 16.3438 12.9125 13.7188C12.725 13.2188 12.5375 13 12.0687 13H10.225C9.72498 13 9.59998 13.25 9.59998 13.5312C9.59998 14.0312 10.225 16.4375 12.5062 19.6562C14.0375 21.8438 16.1937 23 18.1312 23C19.2875 23 19.4437 22.75 19.4437 22.3125C19.4437 20.2188 19.35 20 19.9125 20C20.1937 20 20.6625 20.1562 21.7562 21.2188C23.0062 22.4688 23.225 23 23.9125 23H25.7562C26.2875 23 26.5375 22.75 26.3812 22.2188C26.0375 21.1562 23.6937 18.9062 23.5687 18.75C23.2875 18.4062 23.3812 18.25 23.5687 17.9375C23.5687 17.9375 25.8187 14.75 26.0687 13.6875Z" fill="#FE950D"/>
</svg>
